<?xml version="1.0" encoding="utf-8"?>
<!-- Generator: Adobe Illustrator 17.0.0, SVG Export Plug-In . SVG Version: 6.00 Build 0)  -->
<!DOCTYPE svg PUBLIC "-//W3C//DTD SVG 1.1//EN" "http://www.w3.org/Graphics/SVG/1.1/DTD/svg11.dtd">
<svg version="1.1" id="Calque_1" xmlns="http://www.w3.org/2000/svg" xmlns:xlink="http://www.w3.org/1999/xlink" x="0px" y="0px"
	 width="1000px" height="476.444px" viewBox="0 0 1000 476.444" enable-background="new 0 0 1000 476.444" xml:space="preserve">
<g>
	<defs>
		<rect id="SVGID_1_" width="1000" height="476.444"/>
	</defs>
	<clipPath id="SVGID_2_">
		<use xlink:href="#SVGID_1_"  overflow="visible"/>
	</clipPath>
	<path clip-path="url(#SVGID_2_)" fill="#212121" d="M444.301,101.068c1.822,0,3.512-0.325,5.075-0.976
		c1.56-0.65,2.924-1.538,4.096-2.667c1.168-1.125,2.081-2.471,2.732-4.031c0.65-1.56,0.975-3.206,0.975-4.942
		c0-3.641-1.238-6.696-3.707-9.167c-2.473-2.471-5.526-3.708-9.171-3.708c-1.732,0-3.378,0.325-4.938,0.976
		c-1.564,0.651-2.928,1.56-4.1,2.732c-1.168,1.17-2.081,2.535-2.728,4.096c-0.651,1.559-0.976,3.25-0.976,5.071
		c0,3.556,1.235,6.547,3.704,8.973C437.736,99.855,440.746,101.068,444.301,101.068"/>
	<path clip-path="url(#SVGID_2_)" fill="#212121" d="M310.549,260.31c5.071,4.292,10.859,7.543,17.361,9.753
		c6.503,2.211,13.177,3.316,20.028,3.316c6.239,0,12.353-0.974,18.334-2.926c5.985-1.949,11.445-4.811,16.386-8.583
		c4.943-3.771,9.148-8.451,12.617-14.044c3.464-5.593,5.722-12.074,6.76-19.442h123.809h2.728h51.24h1.694h71.262h1.694h47.595
		c3.292,0,6.067-1.127,8.321-3.382c2.254-2.254,3.382-5.027,3.382-8.323c0-0.433-0.043-0.823-0.129-1.169v-91.686H690.35v81.15
		h-35.888h-1.694h-22.625v-81.15h-23.28v81.15h-25.357h-1.694h-51.24h-2.728h-17.037v-73.476c0-1.561-0.305-3.033-0.913-4.423
		c-0.607-1.385-1.43-2.6-2.469-3.64c-1.039-1.041-2.277-1.864-3.707-2.471c-1.431-0.606-2.972-0.91-4.618-0.91
		c-8.755-0.172-17.511-0.303-26.266-0.39c-8.76-0.086-17.558-0.174-26.4-0.26c-4.684,0-9.344,0.868-13.98,2.6
		c-4.641,1.736-8.889,3.947-12.746,6.633c-3.86,2.689-7.176,5.68-9.951,8.974c-2.774,3.295-4.636,6.546-5.589,9.753l-0.262-28.092
		H378.63c0,17.343,0.043,34.529,0.129,51.566c0.086,17.035,0.129,34.182,0.129,51.434c0,4.768-0.866,8.885-2.602,12.353
		c-1.733,3.467-4.029,6.352-6.89,8.648c-2.861,2.297-6.157,3.988-9.885,5.071c-3.727,1.084-7.587,1.627-11.573,1.627
		c-3.904,0-7.717-0.543-11.444-1.627c-3.732-1.083-7.024-2.774-9.884-5.071c-2.862-2.296-5.158-5.181-6.894-8.648
		c-1.733-3.468-2.599-7.585-2.599-12.353v-46.688h-23.41v46.688c0,8.322,1.537,15.669,4.617,22.042
		C301.401,250.686,305.477,256.018,310.549,260.31 M401.906,176.364c0.172-5.722,1.45-10.706,3.837-14.956
		c2.383-4.246,5.506-7.758,9.363-10.533c3.856-2.775,8.258-4.832,13.2-6.177c4.942-1.344,10.1-2.016,15.477-2.016
		c0.345,0,4.009,0.021,10.99,0.065c6.976,0.045,17.185,0.153,30.625,0.325v61.902h-83.492V176.364z"/>
	<path clip-path="url(#SVGID_2_)" fill="#212121" d="M620.843,254.979c-1.517-0.65-3.187-0.976-5.005-0.976
		c-1.822,0-3.492,0.326-5.009,0.976c-1.516,0.65-2.861,1.56-4.029,2.731c-1.172,1.17-2.081,2.537-2.731,4.096
		c-0.651,1.56-0.976,3.251-0.976,5.071c0,3.642,1.215,6.677,3.641,9.105c2.425,2.426,5.463,3.641,9.104,3.641
		c3.641,0,6.675-1.215,9.105-3.641c2.425-2.428,3.64-5.463,3.64-9.105c0-1.82-0.325-3.511-0.975-5.071
		c-0.651-1.559-1.56-2.926-2.732-4.096C623.704,256.539,622.36,255.629,620.843,254.979"/>
	<path clip-path="url(#SVGID_2_)" fill="#212121" d="M701.924,98.465c3.646,0,6.698-1.213,9.171-3.641
		c2.47-2.426,3.704-5.462,3.704-9.102c0-3.643-1.234-6.698-3.704-9.17c-2.473-2.471-5.525-3.705-9.171-3.705
		c-3.641,0-6.674,1.234-9.101,3.705c-2.429,2.472-3.64,5.527-3.64,9.17c0,3.64,1.211,6.676,3.64,9.102
		C695.25,97.252,698.283,98.465,701.924,98.465"/>
	<path clip-path="url(#SVGID_2_)" fill="#212121" d="M294.907,357.843c2.254,0,4.131-0.751,5.632-2.254
		c1.501-1.501,2.254-3.352,2.254-5.554c0-1.126-0.2-2.172-0.604-3.138c-0.4-0.966-0.964-1.811-1.689-2.536s-1.556-1.288-2.497-1.692
		c-0.936-0.401-1.971-0.603-3.096-0.603c-1.128,0-2.163,0.202-3.1,0.603c-0.941,0.404-1.772,0.967-2.497,1.692
		c-0.721,0.725-1.285,1.57-1.689,2.536c-0.403,0.966-0.603,2.012-0.603,3.138c0,2.202,0.752,4.053,2.253,5.554
		C290.772,357.092,292.654,357.843,294.907,357.843"/>
	<path clip-path="url(#SVGID_2_)" fill="#212121" d="M335.796,417.004l-44.836,0.08c-3.488-0.053-6.346-0.523-8.572-1.409
		c-2.226-0.886-3.97-2.066-5.232-3.541c-1.262-1.476-2.12-3.18-2.575-5.112c-0.454-1.931-0.681-3.997-0.681-6.197
		c0-2.951,0.321-5.822,0.963-8.612c0.643-2.791,1.423-5.232,2.336-7.325c-2.308-1.18-4.401-2.268-6.278-3.261
		c-1.881-0.992-4.025-2.132-6.439-3.42c-1.4,2.897-2.58,6.307-3.543,10.222c-0.965,3.917-1.451,7.97-1.451,12.153
		c0,3.757,0.553,7.486,1.65,11.19c1.102,3.702,2.912,7.015,5.436,9.939c2.52,2.926,5.836,5.287,9.939,7.084
		c4.104,1.799,9.187,2.696,15.254,2.696h51.19c2.041,0,3.758-0.697,5.153-2.092c1.395-1.396,2.093-3.113,2.093-5.153v-57.47h-14.407
		V417.004z"/>
	<path clip-path="url(#SVGID_2_)" fill="#212121" d="M313.982,342.669c-0.964,0.404-1.799,0.967-2.497,1.691
		c-0.697,0.726-1.246,1.571-1.649,2.537c-0.4,0.965-0.604,2.012-0.604,3.138c0,2.201,0.752,4.053,2.253,5.554
		c1.505,1.503,3.355,2.254,5.554,2.254c1.129,0,2.175-0.202,3.139-0.604c0.969-0.401,1.811-0.952,2.536-1.65
		c0.725-0.697,1.289-1.53,1.693-2.494c0.4-0.966,0.604-1.986,0.604-3.06c0-2.253-0.764-4.146-2.297-5.675
		c-1.528-1.528-3.421-2.295-5.675-2.295C315.965,342.065,314.946,342.268,313.982,342.669"/>
	<path clip-path="url(#SVGID_2_)" fill="#212121" d="M516.176,447.75c-2.254,0-4.135,0.765-5.636,2.295
		c-1.501,1.528-2.254,3.42-2.254,5.673c0,2.254,0.753,4.133,2.254,5.634c1.501,1.503,3.382,2.255,5.636,2.255
		c2.253,0,4.143-0.752,5.675-2.255c1.528-1.501,2.293-3.38,2.293-5.634c0-2.253-0.765-4.145-2.293-5.673
		C520.319,448.515,518.429,447.75,516.176,447.75"/>
	<path clip-path="url(#SVGID_2_)" fill="#212121" d="M499.632,450.045c-0.721-0.725-1.567-1.289-2.532-1.691
		c-0.968-0.402-2.014-0.604-3.139-0.604c-2.203,0-4.068,0.765-5.597,2.295c-1.528,1.528-2.293,3.42-2.293,5.673
		c0,2.254,0.765,4.133,2.293,5.634c1.529,1.504,3.394,2.256,5.597,2.256c1.125,0,2.171-0.203,3.139-0.604
		c0.965-0.403,1.811-0.966,2.532-1.691c0.725-0.725,1.29-1.558,1.693-2.495c0.4-0.94,0.603-1.973,0.603-3.1
		c0-1.127-0.203-2.173-0.603-3.139C500.922,451.614,500.357,450.768,499.632,450.045"/>
	<path clip-path="url(#SVGID_2_)" fill="#212121" d="M556.219,449.642c-0.726-0.724-1.561-1.288-2.497-1.689
		c-0.941-0.405-1.971-0.604-3.1-0.604c-1.125,0-2.16,0.199-3.1,0.604c-0.937,0.401-1.768,0.965-2.492,1.689
		c-0.726,0.725-1.29,1.569-1.69,2.535c-0.403,0.967-0.603,2.013-0.603,3.14c0,2.254,0.749,4.131,2.253,5.634
		c1.501,1.501,3.378,2.254,5.632,2.254c2.253,0,4.131-0.753,5.636-2.254c1.501-1.503,2.254-3.38,2.254-5.634
		c0-1.127-0.204-2.173-0.605-3.14C557.504,451.211,556.94,450.367,556.219,449.642"/>
	<path clip-path="url(#SVGID_2_)" fill="#212121" d="M738.165,423.524v-88.781h-14.407v82.261h-14.729h-1.128h-14.003v-82.261
		H679.49v82.261h-15.857h-0.565h-11.992v-45.478c0-0.965-0.188-1.878-0.564-2.737c-0.376-0.858-0.886-1.608-1.529-2.254
		c-0.643-0.644-1.407-1.153-2.292-1.528c-0.886-0.376-1.811-0.565-2.78-0.565c-4.185-0.107-8.383-0.187-12.595-0.24
		c-4.214-0.053-8.412-0.108-12.597-0.161c-4.347-0.16-8.439,0.684-12.276,2.534c-3.836,1.852-7.164,4.28-9.978,7.285
		c-2.817,3.007-5.048,6.387-6.682,10.142c-1.638,3.757-2.454,7.46-2.454,11.106v21.896h-12.8h-0.885h-14.168v-50.228h-14.408v50.228
		h-16.739h-0.004h-15.128v-50.228H498.79v50.228h-16.504h-0.239h-24.711l11.186-17.306c3.006-4.615,4.511-9.069,4.511-13.362
		c0-3.272-0.675-6.279-2.015-9.015c-1.34-2.737-3.151-5.083-5.432-7.043c-2.281-1.957-4.938-3.488-7.968-4.587
		c-3.033-1.099-6.239-1.65-9.621-1.65h-18.35c-3.81,0-7.243,0.617-10.304,1.85c-3.057,1.237-5.675,2.873-7.846,4.911
		c-2.176,2.04-3.853,4.386-5.033,7.043c-1.179,2.655-1.771,5.379-1.771,8.17c0,2.2,0.349,4.427,1.046,6.679
		c0.698,2.254,1.827,4.588,3.383,7.004l11.267,17.306h-23.503h-1.607h-14.65v-82.261h-14.407v88.781
		c-0.055,0.213-0.083,0.457-0.083,0.722c0,2.04,0.714,3.757,2.132,5.153c1.423,1.395,3.128,2.092,5.115,2.092h21.893h1.607h85.161
		h0.239h46.039h0.004h45.315h0.885h88.539h0.565h44.268h1.128h21.972c1.983,0,3.689-0.697,5.11-2.092
		c1.423-1.396,2.133-3.113,2.133-5.153C738.244,423.981,738.217,423.737,738.165,423.524 M440.111,417.004h-2.575l-16.422-25.195
		c-1.289-1.983-1.932-3.915-1.932-5.794c0-1.02,0.282-1.999,0.847-2.938c0.564-0.939,1.329-1.744,2.292-2.414
		c0.969-0.673,2.082-1.21,3.34-1.611c1.262-0.402,2.591-0.604,3.986-0.604h18.35c1.234,0,2.485,0.16,3.742,0.483
		c1.263,0.323,2.387,0.804,3.383,1.45c0.991,0.643,1.81,1.435,2.453,2.373c0.647,0.94,0.968,2.026,0.968,3.261
		c0,1.824-0.674,3.756-2.014,5.794L440.111,417.004z M636.587,417.004h-34.772v-21.976c0-2.092,0.47-4.13,1.411-6.115
		c0.937-1.985,2.183-3.743,3.743-5.273c1.556-1.53,3.323-2.778,5.31-3.743c1.988-0.966,4.026-1.449,6.119-1.449h0.564
		c0.267,0,1.097,0.028,2.492,0.08h2.739c1.18,0,2.443,0.014,3.783,0.041c1.34,0.028,2.748,0.054,4.225,0.081
		c1.478,0.028,2.94,0.04,4.386,0.04V417.004z"/>
</g>
<g>
	<defs>
		<polygon id="SVGID_3_" points="835.145,146.095 816.118,389.222 794.251,320.778 793.182,317.428 789.599,317.448 
			763.762,317.597 742.113,271.044 739.823,266.116 738.32,271.207 730.718,296.969 277.971,296.969 277.971,300.983 
			732.217,300.983 733.718,300.983 734.143,299.543 740.328,278.583 755.244,325.038 756.426,328.717 760.477,328.494 
			786.274,327.078 814.034,421.09 823.132,451.904 825.445,419.812 841.977,190.415 865.229,338.36 867.693,354.032 
			872.798,339.148 893.123,279.914 897.557,302.344 898.205,305.624 901.669,305.472 952.951,303.212 952.951,299.198 
			904.704,297.072 895.576,271.686 893.753,266.614 891.762,271.518 870.918,322.882 845.074,145.722 838.632,101.555 		"/>
	</defs>
	<clipPath id="SVGID_4_">
		<use xlink:href="#SVGID_3_"  overflow="visible"/>
	</clipPath>
	
		<linearGradient id="SVGID_5_" gradientUnits="userSpaceOnUse" x1="0" y1="476.4472" x2="1" y2="476.4472" gradientTransform="matrix(-920.3844 -12.4858 -12.4858 920.3844 6931.0483 -438232.8438)">
		<stop  offset="0" style="stop-color:#1FC3F3"/>
		<stop  offset="1" style="stop-color:#1B75BB"/>
	</linearGradient>
	<polygon clip-path="url(#SVGID_4_)" fill="url(#SVGID_5_)" points="952.827,461.059 273.219,451.84 278.095,92.4 957.703,101.619 	
		"/>
</g>
<g>
	<defs>
		<path id="SVGID_6_" d="M946.93,301.503c0,5.172,4.192,9.364,9.364,9.364s9.365-4.192,9.365-9.364s-4.193-9.365-9.365-9.365
			S946.93,296.331,946.93,301.503"/>
	</defs>
	<clipPath id="SVGID_7_">
		<use xlink:href="#SVGID_6_"  overflow="visible"/>
	</clipPath>
	
		<linearGradient id="SVGID_8_" gradientUnits="userSpaceOnUse" x1="0" y1="476.444" x2="1" y2="476.444" gradientTransform="matrix(-920.3844 -12.4858 -12.4858 920.3844 6930.7354 -438209.7813)">
		<stop  offset="0" style="stop-color:#1FC3F3"/>
		<stop  offset="1" style="stop-color:#1B75BB"/>
	</linearGradient>
	<polygon clip-path="url(#SVGID_7_)" fill="url(#SVGID_8_)" points="965.656,311.121 946.676,310.864 946.933,291.884 
		965.913,292.141 	"/>
</g>
<g>
	<defs>
		<path id="SVGID_9_" d="M268.607,299.571c0,5.171,4.193,9.363,9.364,9.363c5.172,0,9.365-4.192,9.365-9.363
			c0-5.173-4.193-9.365-9.365-9.365C272.8,290.206,268.607,294.398,268.607,299.571"/>
	</defs>
	<clipPath id="SVGID_10_">
		<use xlink:href="#SVGID_9_"  overflow="visible"/>
	</clipPath>
	
		<linearGradient id="SVGID_11_" gradientUnits="userSpaceOnUse" x1="0" y1="476.444" x2="1" y2="476.444" gradientTransform="matrix(-920.3844 -12.4858 -12.4858 920.3844 6930.6367 -438202.5)">
		<stop  offset="0" style="stop-color:#1FC3F3"/>
		<stop  offset="1" style="stop-color:#1B75BB"/>
	</linearGradient>
	<polygon clip-path="url(#SVGID_10_)" fill="url(#SVGID_11_)" points="287.332,309.188 268.353,308.931 268.61,289.952 
		287.59,290.209 	"/>
</g>
<g>
	<defs>
		<path id="SVGID_12_" d="M229.629,94.748c-7.264-0.924-13.886-1.405-20.147-1.405c-96.64,0-175.141,78.982-175.141,176.024
			c0,64.895,32.95,121.723,85.484,152.064c10.747,6.28,22.338,11.409,34.608,15.266c4.453,1.401,9.351,0.071,12.458-3.412
			l0.05-0.055c11.559-13.244,17.137-26.567,19.505-38.248l0.014-0.065c0.754-3.47-1.394-6.869-4.828-7.767
			c-6.812-1.778-13.394-4.15-19.708-7.056h-0.04c-42.139-19.224-72.239-61.885-72.239-109.965c0-66.66,53.738-120.68,119.757-120.84
			c20.708-0.041,43.544,6.782,43.544,6.782S296.491,36.796,463.805,36.796c30.622,0,59.879,6.059,86.607,16.976
			c-39.089-26.086-86.808-40.936-137.134-40.936C341.841,12.836,273.735,43.337,229.629,94.748"/>
	</defs>
	<clipPath id="SVGID_13_">
		<use xlink:href="#SVGID_12_"  overflow="visible"/>
	</clipPath>
	
		<linearGradient id="SVGID_14_" gradientUnits="userSpaceOnUse" x1="0" y1="476.4481" x2="1" y2="476.4481" gradientTransform="matrix(-508.4147 -120.7484 -120.7484 508.4147 58260.5078 -241903.75)">
		<stop  offset="0" style="stop-color:#1FC3F3"/>
		<stop  offset="1" style="stop-color:#1B75BB"/>
	</linearGradient>
	<polygon clip-path="url(#SVGID_13_)" fill="url(#SVGID_14_)" points="522.857,554.12 -61.266,415.391 61.896,-103.186 
		646.019,35.543 	"/>
</g>
<g>
	<defs>
		<path id="SVGID_15_" d="M234.645,99.001l-2.327,2.69l-3.492-0.402c-7.063-0.923-13.364-1.324-19.344-1.324
			c-92.948,0-168.559,76.012-168.559,169.402c0,64.333,32.99,118.593,83.839,147.207c13.002,7.305,27.129,12.963,42.179,16.656
			c11.559-13.244,17.137-26.567,19.505-38.248c-10.315-2.086-20.228-5.457-29.579-9.952
			c-43.183-20.789-73.804-65.055-73.804-114.901c0-70.113,56.668-127.262,126.54-127.422c15.25,0,31.223,3.411,39.53,5.498
			c4.777-10.314,17.258-33.391,41.98-56.588c29.899-28.013,84.078-61.403,172.692-61.403c8.829,0,17.618,0.482,26.327,1.445
			c-24.441-8.067-50.326-12.241-76.854-12.241C344.168,19.418,277.387,49.156,234.645,99.001"/>
	</defs>
	<clipPath id="SVGID_16_">
		<use xlink:href="#SVGID_15_"  overflow="visible"/>
	</clipPath>
	
		<linearGradient id="SVGID_17_" gradientUnits="userSpaceOnUse" x1="0" y1="476.5034" x2="1" y2="476.5034" gradientTransform="matrix(-352.6928 -257.3711 -257.3711 352.6928 123108.0547 -167683.8906)">
		<stop  offset="0" style="stop-color:#1FC3F3"/>
		<stop  offset="1" style="stop-color:#1B75BB"/>
	</linearGradient>
	<polygon clip-path="url(#SVGID_16_)" fill="url(#SVGID_17_)" points="334.043,647.129 -156.121,289.441 197.012,-194.481 
		687.176,163.207 	"/>
</g>
</svg>
