<svg xmlns="http://www.w3.org/2000/svg" xmlns:xlink="http://www.w3.org/1999/xlink" version="1.1" x="0px" y="0px" viewBox="0 0 50 62.5" enable-background="new 0 0 50 50" xml:space="preserve"><path d="M45.851,0H4.149C3.011,0,2.085,0.926,2.085,2.065v6.034c0,1.138,0.926,2.064,2.064,2.064h41.701  c1.139,0,2.064-0.926,2.064-2.064V2.065C47.915,0.926,46.989,0,45.851,0z M45.915,8.099c0,0.036-0.028,0.064-0.064,0.064  L4.085,8.099L4.149,2l41.766,0.065V8.099z"/><path d="M6.59,6.082h13.397c0.552,0,1-0.448,1-1s-0.448-1-1-1H6.59c-0.552,0-1,0.448-1,1S6.038,6.082,6.59,6.082z"/><path d="M40.748,6.082h2.661c0.553,0,1-0.448,1-1s-0.447-1-1-1h-2.661c-0.553,0-1,0.448-1,1S40.195,6.082,40.748,6.082z"/><path d="M34.715,6.082h2.662c0.553,0,1-0.448,1-1s-0.447-1-1-1h-2.662c-0.553,0-1,0.448-1,1S34.162,6.082,34.715,6.082z"/><path d="M45.851,12.422H4.149c-1.138,0-2.064,0.926-2.064,2.064v6.034c0,1.138,0.926,2.064,2.064,2.064h41.701  c1.139,0,2.064-0.926,2.064-2.064v-6.034C47.915,13.348,46.989,12.422,45.851,12.422z M45.915,20.52  c0,0.036-0.028,0.064-0.064,0.064L4.085,20.52l0.064-6.098l41.766,0.064V20.52z"/><path d="M30.014,18.503h13.396c0.553,0,1-0.448,1-1s-0.447-1-1-1H30.014c-0.553,0-1,0.448-1,1S29.461,18.503,30.014,18.503z"/><path d="M6.59,18.503h2.662c0.552,0,1-0.448,1-1s-0.448-1-1-1H6.59c-0.552,0-1,0.448-1,1S6.038,18.503,6.59,18.503z"/><path d="M12.623,18.503h2.661c0.552,0,1-0.448,1-1s-0.448-1-1-1h-2.661c-0.552,0-1,0.448-1,1S12.071,18.503,12.623,18.503z"/><path d="M45.851,24.843H4.15c-1.138,0-2.064,0.927-2.064,2.065v6.033c0,1.139,0.926,2.065,2.064,2.065H24v6.194  c-1.655,0.383-2.956,1.684-3.337,3.339H3.086c-0.552,0-1,0.447-1,1s0.448,1,1,1h17.577C21.119,48.518,22.886,50,25,50  s3.881-1.482,4.337-3.46h17.578c0.553,0,1-0.447,1-1s-0.447-1-1-1H29.338c-0.383-1.655-1.683-2.956-3.338-3.338v-6.195h19.851  c1.139,0,2.064-0.927,2.064-2.065v-6.033C47.915,25.77,46.989,24.843,45.851,24.843z M27.46,45.54c0,1.356-1.104,2.46-2.46,2.46  s-2.46-1.104-2.46-2.46c0-1.357,1.104-2.461,2.46-2.461S27.46,44.183,27.46,45.54z M45.915,32.941c0,0.036-0.029,0.065-0.064,0.065  L4.086,32.941l0.064-6.099l41.765,0.065V32.941z"/><path d="M6.591,30.925h13.396c0.552,0,1-0.447,1-1s-0.448-1-1-1H6.591c-0.552,0-1,0.447-1,1S6.039,30.925,6.591,30.925z"/><path d="M40.749,30.925h2.661c0.553,0,1-0.447,1-1s-0.447-1-1-1h-2.661c-0.553,0-1,0.447-1,1S40.196,30.925,40.749,30.925z"/><path d="M34.716,30.925h2.662c0.553,0,1-0.447,1-1s-0.447-1-1-1h-2.662c-0.553,0-1,0.447-1,1S34.163,30.925,34.716,30.925z"/><text x="0" y="65" fill="#000000" font-size="5px" font-weight="bold" font-family="'Helvetica Neue', Helvetica, Arial-Unicode, Arial, Sans-serif">Created by Alex Burte</text><text x="0" y="70" fill="#000000" font-size="5px" font-weight="bold" font-family="'Helvetica Neue', Helvetica, Arial-Unicode, Arial, Sans-serif">from the Noun Project</text></svg>